<?xml version="1.0" encoding="UTF-8" standalone="no"?>
<!-- Created with Inkscape (http://www.inkscape.org/) -->

<svg
   xmlns:dc="http://purl.org/dc/elements/1.1/"
   xmlns:cc="http://creativecommons.org/ns#"
   xmlns:rdf="http://www.w3.org/1999/02/22-rdf-syntax-ns#"
   xmlns:svg="http://www.w3.org/2000/svg"
   xmlns="http://www.w3.org/2000/svg"
   xmlns:sodipodi="http://sodipodi.sourceforge.net/DTD/sodipodi-0.dtd"
   xmlns:inkscape="http://www.inkscape.org/namespaces/inkscape"
   width="8.4666662mm"
   height="8.7677355mm"
   viewBox="0 0 29.999998 31.066779"
   id="svg2"
   version="1.1"
   inkscape:version="0.91 r13725"
   sodipodi:docname="logo-ex.svg">
  <defs
     id="defs4" />
  <sodipodi:namedview
     id="base"
     pagecolor="#ffffff"
     bordercolor="#666666"
     borderopacity="1.0"
     inkscape:pageopacity="0.0"
     inkscape:pageshadow="2"
     inkscape:zoom="5.058819"
     inkscape:cx="8.2995715"
     inkscape:cy="4.1762825"
     inkscape:document-units="px"
     inkscape:current-layer="layer1"
     showgrid="false"
     showguides="true"
     inkscape:guide-bbox="true"
     fit-margin-top="0"
     fit-margin-left="0"
     fit-margin-right="0"
     fit-margin-bottom="0"
     inkscape:window-width="1024"
     inkscape:window-height="537"
     inkscape:window-x="-8"
     inkscape:window-y="-8"
     inkscape:window-maximized="1">
    <sodipodi:guide
       position="13.602415,15.779513"
       orientation="1,0"
       id="guide4186" />
    <sodipodi:guide
       position="5.7452752,9.1500437"
       orientation="1,0"
       id="guide4197" />
    <sodipodi:guide
       position="18.401525,42.453612"
       orientation="0,1"
       id="guide4212" />
    <sodipodi:guide
       position="20.589026,42.453612"
       orientation="1,0"
       id="guide4214" />
    <sodipodi:guide
       position="40.572636,-18.554035"
       orientation="1,0"
       id="guide4349" />
    <sodipodi:guide
       position="50.573705,-3.5524359"
       orientation="1,0"
       id="guide4351" />
    <sodipodi:guide
       position="50.573705,-24.960964"
       orientation="0,1"
       id="guide4353" />
    <sodipodi:guide
       position="55.730505,-35.118304"
       orientation="0,1"
       id="guide4355" />
  </sodipodi:namedview>
  <metadata
     id="metadata7">
    <rdf:RDF>
      <cc:Work
         rdf:about="">
        <dc:format>image/svg+xml</dc:format>
        <dc:type
           rdf:resource="http://purl.org/dc/dcmitype/StillImage" />
        <dc:title></dc:title>
      </cc:Work>
    </rdf:RDF>
  </metadata>
  <g
     inkscape:label="Capa 1"
     inkscape:groupmode="layer"
     id="layer1"
     transform="translate(-223.98687,-405.64635)">
    <g
       id="g4182">
      <g
         id="g4193">
        <g
           id="g4281"
           transform="matrix(0,-0.65369869,0.70769254,0,-57.021882,565.54692)">
          <rect
             style="fill:#039be5;fill-opacity:1"
             id="rect4283"
             width="7"
             height="26.384506"
             x="237.59966"
             y="402.70062" />
          <path
             transform="matrix(0,1.413043,-1.5297568,0,244.6758,397.07745)"
             sodipodi:nodetypes="ccccccccccccccccccccc"
             inkscape:connector-curvature="0"
             id="path4285"
             d="M 22.249788,0.04368032 C 19.023097,0.04470966 16.096617,1.8406734 14.945312,4.625 l 7.003907,0 c 0.08826,-0.00845 0.176898,-0.013015 0.265625,-0.013672 1.542624,-5.6e-5 2.793149,1.1551497 2.792968,2.5800781 -0.0019,1.3201236 -1.082412,2.4259196 -2.503906,2.5625 l 0,0.00391 -5.441406,0 0,4.6015629 5.441406,0 0,0.0098 c 0.04039,-0.003 0.08076,-0.0062 0.121094,-0.0098 l 0.02344,0 0,-0.002 C 26.76746,14.145399 29.99221,11.002057 30,7.1914062 30.000431,3.2196247 26.549629,0.04340576 22.249788,0.04368032 Z M 0,0.06054687 0,9.7558594 l 4.953125,0 0,-9.69531253 z"
             style="fill:#039be5;fill-opacity:1" />
        </g>
        <g
           transform="matrix(0,0.65369869,0.70769254,0,-57.021882,276.81256)"
           id="g4185">
          <rect
             y="402.70062"
             x="237.59966"
             height="26.384506"
             width="7"
             id="rect4187"
             style="fill:#039be5;fill-opacity:1" />
          <path
             style="fill:#039be5;fill-opacity:1"
             d="M 22.249788,0.04368032 C 19.023097,0.04470966 16.096617,1.8406734 14.945312,4.625 l 7.003907,0 c 0.08826,-0.00845 0.176898,-0.013015 0.265625,-0.013672 1.542624,-5.6e-5 2.793149,1.1551497 2.792968,2.5800781 -0.0019,1.3201236 -1.082412,2.4259196 -2.503906,2.5625 l 0,0.00391 -5.441406,0 0,4.6015629 5.441406,0 0,0.0098 c 0.04039,-0.003 0.08076,-0.0062 0.121094,-0.0098 l 0.02344,0 0,-0.002 C 26.76746,14.145399 29.99221,11.002057 30,7.1914062 30.000431,3.2196247 26.549629,0.04340576 22.249788,0.04368032 Z M 0,0.06054687 0,9.7558594 l 4.953125,0 0,-9.69531253 z"
             id="path4189"
             inkscape:connector-curvature="0"
             sodipodi:nodetypes="ccccccccccccccccccccc"
             transform="matrix(0,1.413043,-1.5297568,0,244.6758,397.07745)" />
        </g>
      </g>
    </g>
  </g>
</svg>
