<?xml version="1.0" encoding="UTF-8" standalone="no"?>
<!-- Created with Inkscape (http://www.inkscape.org/) -->

<svg
   xmlns:dc="http://purl.org/dc/elements/1.1/"
   xmlns:cc="http://creativecommons.org/ns#"
   xmlns:rdf="http://www.w3.org/1999/02/22-rdf-syntax-ns#"
   xmlns:svg="http://www.w3.org/2000/svg"
   xmlns="http://www.w3.org/2000/svg"
   xmlns:sodipodi="http://sodipodi.sourceforge.net/DTD/sodipodi-0.dtd"
   xmlns:inkscape="http://www.inkscape.org/namespaces/inkscape"
   width="8.4666681mm"
   height="8.7578011mm"
   viewBox="0 0 30.000005 31.031578"
   id="svg2"
   version="1.1"
   inkscape:version="0.91 r13725"
   sodipodi:docname="logo-ex.svg">
  <defs
     id="defs4" />
  <sodipodi:namedview
     id="base"
     pagecolor="#ffffff"
     bordercolor="#666666"
     borderopacity="1.0"
     inkscape:pageopacity="0.0"
     inkscape:pageshadow="2"
     inkscape:zoom="13.666757"
     inkscape:cx="6.7139063"
     inkscape:cy="15.038654"
     inkscape:document-units="px"
     inkscape:current-layer="g4182"
     showgrid="false"
     showguides="false"
     inkscape:guide-bbox="true"
     fit-margin-top="0"
     fit-margin-left="0"
     fit-margin-right="0"
     fit-margin-bottom="0"
     inkscape:window-width="1366"
     inkscape:window-height="706"
     inkscape:window-x="-8"
     inkscape:window-y="-8"
     inkscape:window-maximized="1">
    <sodipodi:guide
       position="23.881492,27.956442"
       orientation="1,0"
       id="guide4186" />
    <sodipodi:guide
       position="16.024352,21.326972"
       orientation="1,0"
       id="guide4197" />
    <sodipodi:guide
       position="28.680602,54.630541"
       orientation="0,1"
       id="guide4212" />
    <sodipodi:guide
       position="30.868102,54.630541"
       orientation="1,0"
       id="guide4214" />
    <sodipodi:guide
       position="50.851712,-6.3771076"
       orientation="1,0"
       id="guide4349" />
    <sodipodi:guide
       position="60.852781,8.624492"
       orientation="1,0"
       id="guide4351" />
    <sodipodi:guide
       position="60.852781,-12.784037"
       orientation="0,1"
       id="guide4353" />
    <sodipodi:guide
       position="66.009581,-22.941377"
       orientation="0,1"
       id="guide4355" />
  </sodipodi:namedview>
  <metadata
     id="metadata7">
    <rdf:RDF>
      <cc:Work
         rdf:about="">
        <dc:format>image/svg+xml</dc:format>
        <dc:type
           rdf:resource="http://purl.org/dc/dcmitype/StillImage" />
        <dc:title />
      </cc:Work>
    </rdf:RDF>
  </metadata>
  <g
     inkscape:label="Capa 1"
     inkscape:groupmode="layer"
     id="layer1"
     transform="translate(-213.70779,-417.85849)">
    <g
       id="g4182">
      <g
         transform="matrix(0,-0.65369869,0.70769254,0,-67.300961,577.80274)"
         id="g4281">
        <rect
           y="402.70062"
           x="237.59966"
           height="28.26086"
           width="7"
           id="rect4283"
           style="fill:#039be5;fill-opacity:1" />
        <path
           style="fill:#039be5;fill-opacity:1"
           d="M 22.214844 0 A 7.7846179 7.1906856 0 0 0 14.945312 4.625 L 21.949219 4.625 A 2.7928582 2.5797753 0 0 1 22.214844 4.6113281 A 2.7928582 2.5797753 0 0 1 25.007812 7.1914062 A 2.7928582 2.5797753 0 0 1 22.503906 9.7539062 L 22.503906 9.7578125 L 17.0625 9.7578125 L 17.0625 14.359375 L 22.503906 14.359375 L 22.503906 14.369141 A 7.7846179 7.1906856 0 0 0 22.625 14.359375 L 22.648438 14.359375 L 22.648438 14.357422 A 7.7846179 7.1906856 0 0 0 30 7.1914062 A 7.7846179 7.1906856 0 0 0 22.214844 0 z M 0 0.060546875 L 0 9.7558594 L 4.953125 9.7558594 L 4.953125 0.060546875 L 0 0.060546875 z "
           transform="matrix(0,1.413043,-1.5297568,0,244.6758,397.07745)"
           id="path4285" />
      </g>
      <g
         id="g4172"
         transform="matrix(0,0.65369869,0.70769254,0,-67.300961,288.94582)">
        <path
           style="fill:#039be5;fill-opacity:1"
           d="M 22.503906 16.662109 L 22.503906 16.671875 L 17.0625 16.671875 L 17.0625 21.273438 L 22.503906 21.273438 L 22.503906 21.277344 A 2.7928582 2.5797753 0 0 1 25.007812 23.841797 A 2.7928582 2.5797753 0 0 1 22.494141 26.40625 L 4.953125 26.40625 L 4.953125 21.275391 L 0 21.275391 L 0 30.970703 L 3.9785156 30.970703 L 3.9785156 30.982422 L 21.339844 30.982422 A 7.7846179 7.1906856 0 0 0 22.214844 31.03125 A 7.7846179 7.1906856 0 0 0 23.046875 30.982422 L 23.978516 30.982422 L 23.978516 30.835938 A 7.7846179 7.1906856 0 0 0 30 23.841797 A 7.7846179 7.1906856 0 0 0 22.648438 16.673828 L 22.648438 16.671875 L 22.625 16.671875 A 7.7846179 7.1906856 0 0 0 22.503906 16.662109 z "
           transform="matrix(0,1.413043,1.5297568,0,197.20503,397.07745)"
           id="rect4174" />
      </g>
    </g>
  </g>
</svg>
