<svg xmlns="http://www.w3.org/2000/svg" width="32000.005" height="33100.351" viewBox="0 0 30.000005 31.031578"><g fill="#039be5"><path d="M4.103 4.554V-.024h20.01v4.578z"/><path d="M22.337-.074a7.785 7.19 0 0 0-7.27 4.625h7.004a2.793 2.58 0 0 1 .267-.013 2.793 2.58 0 0 1 2.793 2.58 2.793 2.58 0 0 1-2.504 2.563v.004h-5.442v4.6h5.442v.01a7.785 7.19 0 0 0 .12-.01h.024a7.785 7.19 0 0 0 7.352-7.167 7.785 7.19 0 0 0-7.785-7.19zM.122-.014v9.696h4.953V-.013H.122z"/></g><path d="M22.626 16.72v.01h-5.442v4.602h5.442v.004A2.793 2.58 0 0 1 25.13 23.9a2.793 2.58 0 0 1-2.514 2.565H5.076v-5.13H.12v9.695h3.98v.01h17.36a7.785 7.19 0 0 0 .875.05 7.785 7.19 0 0 0 .832-.05h.93v-.145a7.785 7.19 0 0 0 6.022-6.994 7.785 7.19 0 0 0-7.352-7.167v-.002h-.023a7.785 7.19 0 0 0-.12-.01z" fill="#039be5"/></svg>