<svg id="Layer_1" data-name="Layer 1" xmlns="http://www.w3.org/2000/svg" xmlns:xlink="http://www.w3.org/1999/xlink" viewBox="0 0 256 256"><defs><style>.cls-1{fill:url(#radial-gradient);}.cls-2{fill:url(#radial-gradient-2);}.cls-3{fill:url(#radial-gradient-3);}</style><radialGradient id="radial-gradient" cx="165.33" cy="206.42" fx="269.41181271627875" fy="159.16540525058585" r="140.56" gradientTransform="translate(293.82 -102.92) rotate(52.13) scale(1 1.41)" gradientUnits="userSpaceOnUse"><stop offset="0" stop-color="#027d3e"/><stop offset="0.92" stop-color="#9cbe34"/></radialGradient><radialGradient id="radial-gradient-2" cx="165.33" cy="206.42" fx="269.41181271628176" fy="159.1654052505872" r="140.56" gradientTransform="translate(293.82 -102.92) rotate(52.13) scale(1 1.41)" gradientUnits="userSpaceOnUse"><stop offset="0" stop-color="#027d3e"/><stop offset="1" stop-color="#9cbe34"/></radialGradient><radialGradient id="radial-gradient-3" cx="115.67" cy="46.78" fx="38.44041584502034" fy="78.21787110073721" r="171.78" gradientTransform="matrix(0.82, 0.57, -0.7, 1.01, 53.18, -66.13)" gradientUnits="userSpaceOnUse"><stop offset="0.08" stop-color="#eff4cb"/><stop offset="0.53" stop-color="#bdd076"/><stop offset="1" stop-color="#96b85a"/></radialGradient></defs><title>iconos sr fabian</title><path class="cls-1" d="M221.68,64.78a0.73,0.73,0,0,1-.18.94c-6.2,4.79-67.92,54.29-104.06,154.56a0.73,0.73,0,0,1-1.25.23c-5.63-6.85-39.81-47.75-77.4-78.47a0.73,0.73,0,0,1-.19-0.89l0.74-1.44A349.07,349.07,0,0,0,0,189.57v36.77A29.67,29.67,0,0,0,29.67,256H226.33A29.67,29.67,0,0,0,256,226.33V39.51a276.56,276.56,0,0,0-46.54,4.13Z"/><path class="cls-2" d="M106.44,151.44c3.45-6.9,27.55-52.66,84.09-103.79C137.81,60.8,95.69,88,64.34,115.55a539.5,539.5,0,0,1,40.93,36.07A0.73,0.73,0,0,0,106.44,151.44Z"/><path class="cls-3" d="M226.33,0H29.67A29.67,29.67,0,0,0,0,29.67v159.9A349.07,349.07,0,0,1,39.35,139.7c2.33-4.5,8.52-16.19,16.57-29.66a0.73,0.73,0,0,1,1.07-.22c1.14,0.86,3.73,2.84,7.36,5.73C95.69,88,137.81,60.8,190.52,47.65Q197,41.81,204,35.9a0.74,0.74,0,0,1,1.11.19l4.36,7.54A276.56,276.56,0,0,1,256,39.51V29.67A29.67,29.67,0,0,0,226.33,0Z"/></svg>