<svg id="Layer_1" data-name="Layer 1" xmlns="http://www.w3.org/2000/svg" viewBox="0 0 256 256"><title>iconos sr fabian</title><path d="M252.79,207.33c-4.15-6.27-6.92-12.65-7.17-19.19a65.89,65.89,0,0,1,3-21.38,207.92,207.92,0,0,0,6.61-33.21c1.94-15.35-2.26-30.17-6.55-44.68-2.09-7.05-4.34-15.12-3.67-20.58a49.7,49.7,0,0,1,7.45-19.5,16.09,16.09,0,0,0,2.2-5,19.21,19.21,0,0,0,.84-6.32c-1-12-12.08-19.71-24.06-16.54-9.32,2.46-18.53,5.37-27.75,8.21-4.07,1.25-8.05,2.58-11.92,2.41-5.5-.24-10.76-2.75-15.68-6.34-8.75-6.39-17.62-6.28-26.6-.93C142.3,28.55,135.23,32,128.21,32h-0.42c-7,0-14.09-3.45-21.29-7.74-9-5.35-17.85-5.34-26.6,1-4.92,3.59-10.18,6-15.68,6.28-3.87.17-7.85-1.19-11.92-2.44-9.22-2.83-18.43-5.76-27.75-8.22-12-3.17-23,4.5-24.06,16.53a19.19,19.19,0,0,0,.84,6.32,16.08,16.08,0,0,0,2.2,5A49.7,49.7,0,0,1,11,68.3c0.67,5.46-1.58,13.53-3.67,20.58C3,103.38-1.19,118.2.75,133.55a207.92,207.92,0,0,0,6.61,33.21,65.89,65.89,0,0,1,3,21.38c-0.25,6.55-3,12.92-7.17,19.19a16.24,16.24,0,0,0-1,17.12c3.65,7.2,9.49,10.89,18.48,11.08,1.76-.36,4.38-0.79,6.95-1.46,3.7-1,8.35-1.82,11.87-3.25C48.9,227,57.38,225,62.67,225c4.18,0,16.21,3.77,23,7.7a22.88,22.88,0,0,0,25.22-1.49A27.59,27.59,0,0,1,127.79,226h0.42a27.59,27.59,0,0,1,16.89,5.18c7.68,5.54,17.27,6.27,25.22,1.66,6.79-3.93,18.82-7.81,23-7.78,5.29,0,13.77,2,23.21,5.8,3.52,1.44,8.17,2.26,11.87,3.23,2.56,0.67,5.19,1.09,6.95,1.45,9-.19,14.83-3.89,18.48-11.09A16.25,16.25,0,0,0,252.79,207.33ZM226,195.56A11.44,11.44,0,0,1,214.56,207H40.44A11.44,11.44,0,0,1,29,195.56V61.44A11.44,11.44,0,0,1,40.44,50H214.56A11.44,11.44,0,0,1,226,61.44V195.56Z"/><path d="M178.78,109H147V78.41c0-4.63-3.26-8.41-7.89-8.41H117.87c-4.61,0-8.87,3.8-8.87,8.41V109H78.2c-4.63,0-9.2,4.45-9.2,9.08v21.24c0,4.63,4.58,8.68,9.2,8.68H109v31c0,4.63,4.24,8,8.87,8h21.24a7.67,7.67,0,0,0,7.89-8V148h31.78a8.51,8.51,0,0,0,8.22-8.68V118.08C187,113.45,183.41,109,178.78,109Z"/></svg>