<svg id="Layer_1" data-name="Layer 1" xmlns="http://www.w3.org/2000/svg" viewBox="0 0 256 256"><title>iconos sr fabian</title><path d="M206.44,56h-7.05l-13.9-23a14.26,14.26,0,0,0-11.79-7H101.58a14.25,14.25,0,0,0-12,7.43L77,56H59.65c-0.37-6-5.07-11-10.84-11H30.89A10.76,10.76,0,0,0,20,55.72v1.83A31.67,31.67,0,0,0,1,86.4v97.29C1,209.55,22,231,47.84,231H207.69c26.12,0,47.31-21.66,47.31-47.79V103.56C255,76.75,233.25,56,206.44,56ZM39.89,89.14A14.75,14.75,0,1,1,54.64,74.39,14.75,14.75,0,0,1,39.89,89.14Zm98,113.71a69.33,69.33,0,1,1,69.33-69.33A69.33,69.33,0,0,1,137.85,202.85Z"/><circle cx="137.85" cy="133.52" r="47.42"/></svg>