<svg id="Layer_1" data-name="Layer 1" xmlns="http://www.w3.org/2000/svg" xmlns:xlink="http://www.w3.org/1999/xlink" viewBox="0 0 256 256"><defs><style>.cls-1{fill:none;}.cls-2{fill:#f7941e;}.cls-3{fill:url(#radial-gradient);}.cls-4{fill:url(#radial-gradient-2);}.cls-10,.cls-11,.cls-12,.cls-13,.cls-14,.cls-5,.cls-6,.cls-7,.cls-8,.cls-9{opacity:0.26;}.cls-5{fill:url(#radial-gradient-3);}.cls-6{fill:url(#radial-gradient-4);}.cls-7{fill:url(#radial-gradient-11);}.cls-8{fill:url(#radial-gradient-12);}.cls-9{fill:url(#radial-gradient-15);}.cls-10{fill:url(#radial-gradient-30);}.cls-11{fill:url(#radial-gradient-45);}.cls-12{fill:url(#radial-gradient-46);}.cls-13{fill:url(#radial-gradient-59);}.cls-14{fill:url(#radial-gradient-60);}</style><radialGradient id="radial-gradient" cx="97" cy="182.79" fx="69.89972022503802" r="153.58" gradientTransform="translate(58.82 2.02) rotate(19.74) scale(1 0.86)" gradientUnits="userSpaceOnUse"><stop offset="0.01" stop-color="#f2595b"/><stop offset="0.23" stop-color="#f25557"/><stop offset="0.48" stop-color="#f0484a"/><stop offset="0.73" stop-color="#ef3236"/><stop offset="0.89" stop-color="#ed2025"/></radialGradient><radialGradient id="radial-gradient-2" cx="117" cy="73.28" fx="63.965015301498454" fy="127.52704299900503" r="143.33" gradientTransform="matrix(0.93, 0.37, -0.3, 0.74, 30.26, -24.8)" gradientUnits="userSpaceOnUse"><stop offset="0.34" stop-color="#f47d75"/><stop offset="1" stop-color="#f26248"/></radialGradient><radialGradient id="radial-gradient-3" cx="96.99" cy="182.79" fx="69.88941688022202" r="153.58" gradientTransform="translate(58.81 2.03) rotate(19.74) scale(1 0.86)" xlink:href="#radial-gradient"/><radialGradient id="radial-gradient-4" cx="116.99" cy="73.28" fx="63.954815811473466" fy="127.52704299900398" r="143.33" gradientTransform="matrix(0.93, 0.37, -0.3, 0.74, 30.26, -24.79)" xlink:href="#radial-gradient-2"/><radialGradient id="radial-gradient-11" cx="198" cy="127.62" fx="197.9980097384905" r="0.64" gradientTransform="translate(48.72 -42.59) rotate(19.74) scale(1 0.86)" xlink:href="#radial-gradient"/><radialGradient id="radial-gradient-12" cx="198" cy="127.62" fx="197.9980097384905" fy="127.61968994140625" r="0.64" gradientTransform="matrix(0.93, 0.37, -0.3, 0.74, 52.28, -41.04)" xlink:href="#radial-gradient-2"/><radialGradient id="radial-gradient-15" cx="96.99" cy="182.79" fx="69.88941564376333" r="153.58" gradientTransform="translate(58.81 2.03) rotate(19.74) scale(1 0.86)" xlink:href="#radial-gradient"/><radialGradient id="radial-gradient-30" cx="116.99" cy="73.28" fx="63.95482240232292" fy="127.5270556209745" r="143.33" gradientTransform="matrix(0.93, 0.37, -0.3, 0.74, 30.26, -24.79)" xlink:href="#radial-gradient-2"/><radialGradient id="radial-gradient-45" cx="194.98" cy="127.62" fx="194.97618967013113" r="0.46" gradientTransform="translate(48.54 -41.57) rotate(19.74) scale(1 0.86)" xlink:href="#radial-gradient"/><radialGradient id="radial-gradient-46" cx="194.98" cy="127.62" fx="194.97618967013113" fy="127.62164306640625" r="0.46" gradientTransform="matrix(0.93, 0.37, -0.3, 0.74, 52.06, -39.92)" xlink:href="#radial-gradient-2"/><radialGradient id="radial-gradient-59" cx="191.99" cy="127.59" fx="191.99443918184988" r="0.22" gradientTransform="translate(48.36 -40.57) rotate(19.74) scale(1 0.86)" xlink:href="#radial-gradient"/><radialGradient id="radial-gradient-60" cx="191.99" cy="127.59" fx="191.99443918184988" fy="127.59146118164062" r="0.22" gradientTransform="matrix(0.93, 0.37, -0.3, 0.74, 51.84, -38.82)" xlink:href="#radial-gradient-2"/></defs><title>iconos sr fabian</title><path class="cls-1" d="M225.6,125.69l2-.31Z"/><path class="cls-1" d="M220,126.42l1.69-.19Z"/><path class="cls-1" d="M222.76,126.08l1.91-.26Z"/><path class="cls-1" d="M217.13,126.71l1.41-.14Z"/><path class="cls-1" d="M214.25,127l1.14-.09Z"/><path class="cls-1" d="M208.32,127.34l0.78,0Z"/><path class="cls-1" d="M211.32,127.17l0.92-.06Z"/><path class="cls-1" d="M232.29,124.51l1.08-.23Z"/><path class="cls-1" d="M248.18,119.66l0.57-.25Z"/><path class="cls-1" d="M247.4,120a69.89,69.89,0,0,1-7.86,2.74l1.63-.47A63.3,63.3,0,0,0,247.4,120Z"/><path class="cls-1" d="M229.65,125l1.09-.21Z"/><path class="cls-1" d="M237.73,123.24l1.39-.38Z"/><path class="cls-1" d="M235.09,123.89l1.52-.37Z"/><path class="cls-1" d="M205.26,127.47l0.73,0Z"/><path class="cls-1" d="M47.12,110.74l1.83-.06Z"/><path class="cls-1" d="M50.44,110.64l1.57,0Z"/><path class="cls-1" d="M54,110.59h0Z"/><path class="cls-1" d="M58.05,110.61h0Z"/><path class="cls-1" d="M197.1,127.63h0Z"/><path class="cls-1" d="M8.85,117l0.13,0Z"/><path class="cls-1" d="M66.4,110.85l0.74,0Z"/><path class="cls-1" d="M79.35,111.74l0.49,0Z"/><path class="cls-1" d="M202.12,127.56l0.82,0Z"/><path class="cls-1" d="M198.9,127.61h0Z"/><path class="cls-1" d="M192.31,127.6l2,0Z"/><path class="cls-1" d="M70.4,111.06l1,0.06Z"/><path class="cls-1" d="M74.64,111.35l0.93,0.07Z"/><path class="cls-1" d="M89.24,112.78l-0.3,0,0.3,0h0Z"/><path class="cls-1" d="M191.68,127.59c-3.82-.07-7.56-0.2-11.17-0.39-10.34-.54-19.44-1.48-25.77-2.26h0A360.88,360.88,0,0,0,191.68,127.59Z"/><path class="cls-1" d="M46.37,110.77c-5.14.21-9.81,0.59-14,1.1a114.7,114.7,0,0,0-22.76,4.86,110.66,110.66,0,0,1,17.78-4.16A168.47,168.47,0,0,1,46.37,110.77Z"/><path class="cls-2" d="M90,112.88l-0.78-.1h0Z"/><path class="cls-3" d="M248.18,119.66l-0.78.34a63.3,63.3,0,0,1-6.24,2.27l-1.62.47-0.41.12-1.39.38-1.12.29-1.52.37-1.72.39-1.08.23-1.55.31-1.09.21-1.81.32-0.22,0-2,.31-0.93.14-1.91.26-1.12.14-1.69.19-1.41.15-1.41.14-1.73.16-1.14.09-2,.15-0.92.06-2.22.13-0.78,0-2.33.1-0.73,0-2.33.07-0.82,0-2.15,0h-5.64l-2,0h-0.63a360.88,360.88,0,0,1-37-2.63l-4,4,33.77,33.78a6.77,6.77,0,0,1,0,9.58l-13.06,13a6.77,6.77,0,0,1-9.58,0l-33.76-33.78L94.51,185.17a6.77,6.77,0,0,1-9.58,0L71.88,172.12a6.77,6.77,0,0,1,0-9.58L105.44,129l-16.19-16.2-0.3,0q-4.69-.57-9.1-1l-0.49,0-3.79-.32-0.93-.07-3.28-.23-1-.06-3.26-.18-0.74,0q-4-.18-7.64-0.23H58.05l-2.75,0H54l-2,0-1.57,0-1.49,0-1.83.06-0.75,0a168.47,168.47,0,0,0-19,1.8,110.66,110.66,0,0,0-17.78,4.16L9,116.94l-0.13,0c-1.65.58-3,1.12-4.1,1.6-2.37,1-3.75,1.75-3.75,1.75V209a46.08,46.08,0,0,0,5.35,21.06A47.07,47.07,0,0,0,15,241.54,45.9,45.9,0,0,0,47.55,255H208.8a46.61,46.61,0,0,0,33.07-13.68,45.8,45.8,0,0,0,8.35-11.88,46.49,46.49,0,0,0,4.78-21.2V116a51.1,51.1,0,0,1-6.25,3.41Z"/><path class="cls-4" d="M254.37,39.94A47.85,47.85,0,0,0,207.23,1H49.89A48.32,48.32,0,0,0,7.19,26.61,48.49,48.49,0,0,0,2,41.13a48.86,48.86,0,0,0-1,8.2v71s1.62-.88,4.58-2.11c0.92-.38,2-0.8,3.28-1.24l0.13,0,0.64-.22a114.7,114.7,0,0,1,22.76-4.86c4.18-.5,8.84-0.89,14-1.1l0.75,0,1.83-.06,1.49,0,1.57,0,2,0H55.3l2.75,0h0.71q3.68,0.06,7.64.23l0.74,0,3.26,0.18,1,0.06,3.28,0.23,0.93,0.07,3.79,0.32,0.49,0q4.41,0.41,9.1,1l0.3,0L71.55,95.08a6.77,6.77,0,0,1,0-9.58l13.06-13a6.77,6.77,0,0,1,9.58,0l33.88,33.9,33.43-33.43a6.77,6.77,0,0,1,9.58,0L184.12,86a6.77,6.77,0,0,1,0,9.58l-29.38,29.38c6.33,0.78,15.43,1.72,25.77,2.26,3.61,0.19,7.35.32,11.17,0.39h0.63l2,0H200l2.15,0,0.82,0,2.33-.07,0.73,0,2.33-.1,0.78,0,2.22-.13,0.92-.06,2-.15,1.14-.09,1.73-.16,1.41-.14,1.41-.15,1.69-.19,1.12-.14,1.91-.26,0.93-.14,2-.31,2-.35,1.09-.21,1.55-.31,1.08-.23,1.72-.39,1.52-.37,1.12-.29,1.39-.38,0.41-.12A69.89,69.89,0,0,0,247.4,120l0.78-.34,0.57-.25A53.05,53.05,0,0,0,255,116V49.32A48.85,48.85,0,0,0,254.37,39.94Z"/><path class="cls-5" d="M239.12,122.86l0.41-.12Z"/><path class="cls-6" d="M239.12,122.86l0.41-.12Z"/><path class="cls-5" d="M8.85,117c-1.26.44-2.36,0.85-3.28,1.24-3,1.23-4.58,2.11-4.58,2.11s1.38-.71,3.76-1.75C5.83,118.11,7.2,117.56,8.85,117Z"/><path class="cls-6" d="M8.85,117c-1.26.44-2.36,0.85-3.28,1.24-3,1.23-4.58,2.11-4.58,2.11s1.38-.71,3.76-1.75C5.83,118.11,7.2,117.56,8.85,117Z"/><path class="cls-5" d="M230.74,124.82l1.55-.31Z"/><path class="cls-6" d="M230.74,124.82l1.55-.31Z"/><path class="cls-5" d="M221.64,126.23l1.12-.14Z"/><path class="cls-6" d="M221.64,126.23l1.12-.14Z"/><path class="cls-7" d="M198.9,127.61h0Z"/><path class="cls-8" d="M198.9,127.61h0Z"/><path class="cls-5" d="M224.67,125.83l0.93-.14Z"/><path class="cls-6" d="M224.67,125.83l0.93-.14Z"/><path class="cls-9" d="M229.65,125l-2,.35,0.22,0Z"/><path class="cls-6" d="M229.65,125l-2,.35,0.22,0Z"/><path class="cls-5" d="M247.4,120l0.78-.34Z"/><path class="cls-6" d="M247.4,120l0.78-.34Z"/><path class="cls-5" d="M236.61,123.52l1.12-.29Z"/><path class="cls-6" d="M236.61,123.52l1.12-.29Z"/><path class="cls-5" d="M46.37,110.77l0.75,0Z"/><path class="cls-6" d="M46.37,110.77l0.75,0Z"/><path class="cls-5" d="M9,116.94l0.64-.22Z"/><path class="cls-6" d="M9,116.94l0.64-.22Z"/><path class="cls-5" d="M255,116a48.74,48.74,0,0,1-6.24,3.41A44.49,44.49,0,0,0,255,116Z"/><path class="cls-6" d="M255,116a48.74,48.74,0,0,1-6.24,3.41A44.49,44.49,0,0,0,255,116Z"/><path class="cls-5" d="M233.36,124.28l1.72-.39Z"/><path class="cls-6" d="M233.36,124.28l1.72-.39Z"/><path class="cls-5" d="M48.95,110.68l1.49,0Z"/><path class="cls-10" d="M48.95,110.68l1.49,0Z"/><path class="cls-5" d="M209.1,127.3l2.22-.13Z"/><path class="cls-6" d="M209.1,127.3l2.22-.13Z"/><path class="cls-5" d="M52,110.61l2,0Z"/><path class="cls-6" d="M52,110.61l2,0Z"/><path class="cls-5" d="M58.76,110.61q3.69,0.06,7.64.23Q62.45,110.67,58.76,110.61Z"/><path class="cls-6" d="M58.76,110.61q3.69,0.06,7.64.23Q62.45,110.67,58.76,110.61Z"/><path class="cls-5" d="M200,127.6l2.15,0Z"/><path class="cls-6" d="M200,127.6l2.15,0Z"/><path class="cls-5" d="M212.24,127.11l2-.15Z"/><path class="cls-6" d="M212.24,127.11l2-.15Z"/><path class="cls-5" d="M67.15,110.88l3.26,0.18Z"/><path class="cls-6" d="M67.15,110.88l3.26,0.18Z"/><path class="cls-5" d="M71.36,111.12l3.28,0.23Z"/><path class="cls-6" d="M71.36,111.12l3.28,0.23Z"/><path class="cls-11" d="M194.33,127.62h0Z"/><path class="cls-12" d="M194.33,127.62h0Z"/><path class="cls-5" d="M202.94,127.54l2.33-.07Z"/><path class="cls-6" d="M202.94,127.54l2.33-.07Z"/><path class="cls-5" d="M206,127.45l2.33-.1Z"/><path class="cls-6" d="M206,127.45l2.33-.1Z"/><path class="cls-5" d="M218.54,126.58l1.41-.15Z"/><path class="cls-6" d="M218.54,126.58l1.41-.15Z"/><path class="cls-5" d="M75.56,111.42l3.79,0.32Z"/><path class="cls-6" d="M75.56,111.42l3.79,0.32Z"/><path class="cls-5" d="M79.84,111.78q4.41,0.41,9.1,1Q84.25,112.18,79.84,111.78Z"/><path class="cls-6" d="M79.84,111.78q4.41,0.41,9.1,1Q84.25,112.18,79.84,111.78Z"/><path class="cls-5" d="M55.3,110.59l2.75,0Z"/><path class="cls-6" d="M55.3,110.59l2.75,0Z"/><path class="cls-13" d="M191.68,127.59h0Z"/><path class="cls-14" d="M191.68,127.59h0Z"/><path class="cls-5" d="M215.4,126.87l1.73-.16Z"/><path class="cls-6" d="M215.4,126.87l1.73-.16Z"/></svg>