<svg id="Layer_1" data-name="Layer 1" xmlns="http://www.w3.org/2000/svg" viewBox="0 0 256 256"><title>iconos sr fabian</title><path d="M202.87,100.89c-5.73-5.72-16.6-5.78-22.32,0-12.83,13-26.55,25.91-39.55,38.86V16.12c0-7.85-6.88-15.36-15-15s-15,6.59-15,15V140c-10-10.32-19.41-20.65-29.63-31-2.68-2.71-4.84-5.42-7.52-8.12a15,15,0,0,0-21,0A15.19,15.19,0,0,0,53,122.1Q81.15,150.54,109.37,179c2.15,2.17,4.32,4.33,6.47,6.5a14.44,14.44,0,0,0,1.39,1.62,15.18,15.18,0,0,0,12.17,4.24,15,15,0,0,0,9.33-4.24,14.44,14.44,0,0,0,1.39-1.63l54.71-55.25,8-8.12A15.23,15.23,0,0,0,202.87,100.89Z"/><path d="M1,175v64.5C1,247.61,8.09,255,16.24,255H240.65c8.12,0,15.35-7.37,15.35-15.5V175c0-7.85-6.88-15.36-15-15s-15,6.59-15,15v64.5c5-5,9.64-9.5,14.65-14.5H16.24c5,5,10.76,9.5,15.76,14.5V175c0-7.85-7.38-15.36-15.5-15S1,166.59,1,175H1Z"/></svg>