<svg id="Layer_1" data-name="Layer 1" xmlns="http://www.w3.org/2000/svg" viewBox="0 0 256 256"><title>iconos sr fabian</title><path d="M252.57,207.53c-4.15-6.27-6.92-12.65-7.17-19.19a65.89,65.89,0,0,1,3-21.38A207.92,207.92,0,0,0,255,133.75c1.94-15.35-2.26-30.17-6.55-44.68-2.09-7.05-4.34-15.12-3.67-20.58A49.7,49.7,0,0,1,252.27,49a16.09,16.09,0,0,0,2.2-5,19.21,19.21,0,0,0,.84-6.32c-1-12-12.08-19.71-24.06-16.54-9.32,2.46-18.53,5.37-27.75,8.21-4.07,1.25-8.05,2.58-11.92,2.41-5.5-.24-10.76-2.75-15.68-6.34-8.75-6.39-17.62-6.38-26.6-1C142.09,28.65,135,32,128,32h-0.42c-7,0-14.09-3.35-21.29-7.64-9-5.35-17.85-5.29-26.6,1.1C74.76,29,69.5,31.53,64,31.77c-3.87.17-7.85-1.18-11.92-2.43-9.22-2.83-18.43-5.75-27.75-8.22-12-3.17-23,4.5-24.06,16.54A19.2,19.2,0,0,0,1.1,44a16.08,16.08,0,0,0,2.2,5,49.7,49.7,0,0,1,7.45,19.5C11.42,73.95,9.16,82,7.08,89.07,2.79,103.58-1.41,118.4.53,133.75A207.92,207.92,0,0,0,7.14,167a65.89,65.89,0,0,1,3,21.38c-0.25,6.55-3,12.92-7.17,19.19a16.24,16.24,0,0,0-1,17.12c3.65,7.2,9.49,10.89,18.48,11.08,1.76-.36,4.38-0.79,6.95-1.46,3.7-1,8.35-1.82,11.87-3.25,9.44-3.85,17.91-5.81,23.21-5.84,4.18,0,16.21,3.77,23,7.7,8,4.61,17.55,3.95,25.22-1.59A27.71,27.71,0,0,1,127.57,226H128a27.71,27.71,0,0,1,16.89,5.28c7.68,5.54,17.27,6.32,25.22,1.71,6.79-3.93,18.82-7.79,23-7.76,5.29,0,13.77,2,23.21,5.81,3.52,1.44,8.17,2.27,11.87,3.24,2.56,0.67,5.19,1.09,6.95,1.45,9-.19,14.83-3.89,18.48-11.09A16.25,16.25,0,0,0,252.57,207.53Zm-26.57-12A11.44,11.44,0,0,1,214.56,207H40.44A11.44,11.44,0,0,1,29,195.56V61.44A11.44,11.44,0,0,1,40.44,50H214.56A11.44,11.44,0,0,1,226,61.44V195.56Z"/><path d="M143.87,83.3l28.71,28.59a0.71,0.71,0,0,0,1,0l9.44-9.79a8.52,8.52,0,0,0,0-11.85L166,72.73a8.52,8.52,0,0,0-12-.2l-10.1,9.75A0.71,0.71,0,0,0,143.87,83.3Z"/><path d="M164.09,122.63L133.31,92.71a0.51,0.51,0,0,0-.71,0l-51.28,51a3.11,3.11,0,0,0-.78,1.3l-10.73,35.2a5.23,5.23,0,0,0,5,6.76h0.46a5.23,5.23,0,0,0,1.61-.26l34.92-11.29a4.52,4.52,0,0,0,1.82-1.12l50.49-51A0.51,0.51,0,0,0,164.09,122.63ZM105.7,167.89l-18.47,5.54a1.21,1.21,0,0,1-1.41-.55,5.88,5.88,0,0,0-2.28-2.24,1.22,1.22,0,0,1-.6-1.37l4.87-19A0.4,0.4,0,0,1,88.4,150c1,0.53,3.53,1.88,6.73,3.38a14.21,14.21,0,0,1,6.82,6.69,73.47,73.47,0,0,0,4,7.24A0.4,0.4,0,0,1,105.7,167.89Z"/></svg>