<?xml version="1.0" encoding="UTF-8" standalone="no"?>
<!-- Generator: Adobe Illustrator 19.2.1, SVG Export Plug-In . SVG Version: 6.00 Build 0)  -->

<svg
   xmlns:dc="http://purl.org/dc/elements/1.1/"
   xmlns:cc="http://creativecommons.org/ns#"
   xmlns:rdf="http://www.w3.org/1999/02/22-rdf-syntax-ns#"
   xmlns:svg="http://www.w3.org/2000/svg"
   xmlns="http://www.w3.org/2000/svg"
   xmlns:sodipodi="http://sodipodi.sourceforge.net/DTD/sodipodi-0.dtd"
   xmlns:inkscape="http://www.inkscape.org/namespaces/inkscape"
   version="1.1"
   id="Layer_1"
   x="0px"
   y="0px"
   viewBox="0 0 256 256"
   style="enable-background:new 0 0 256 256;"
   xml:space="preserve"
   inkscape:version="0.91 r13725"
   sodipodi:docname="search-web.svg"><metadata
     id="metadata13"><rdf:RDF><cc:Work
         rdf:about=""><dc:format>image/svg+xml</dc:format><dc:type
           rdf:resource="http://purl.org/dc/dcmitype/StillImage" /><dc:title></dc:title></cc:Work></rdf:RDF></metadata><defs
     id="defs11" /><sodipodi:namedview
     pagecolor="#ffffff"
     bordercolor="#666666"
     borderopacity="1"
     objecttolerance="10"
     gridtolerance="10"
     guidetolerance="10"
     inkscape:pageopacity="0"
     inkscape:pageshadow="2"
     inkscape:window-width="640"
     inkscape:window-height="480"
     id="namedview9"
     showgrid="false"
     inkscape:zoom="0.921875"
     inkscape:cx="109.01695"
     inkscape:cy="475.11864"
     inkscape:window-x="0"
     inkscape:window-y="0"
     inkscape:window-maximized="0"
     inkscape:current-layer="Layer_1" /><style
     type="text/css"
     id="style3">
	.st0{fill:none;}
	.st1{fill:#BC4A4A;}
	.st2{clip-path:url(#SVGID_2_);}
	.st3{clip-path:url(#SVGID_4_);}
	.st4{fill:#00A204;}
</style><g
     id="g5"><path
       d="M243,75.9C214.6,11.8,139.6-17,75.5,11.4C11.4,39.9-17.4,114.9,11.1,179c28.5,64.1,103.5,92.9,167.5,64.4   C242.6,214.9,271.5,139.9,243,75.9z M229.3,125.3l-1.2,9.8c0,0.1,0,0.2,0,0.3l0.8,12c0,0.2,0,0.4,0,0.7l-1.1,7.9   c-0.1,0.5-0.3,1.1-0.6,1.5l-4.5,7.3c-0.2,0.3-0.3,0.5-0.3,0.8l-0.8,5.5c0,0.3-0.1,0.5-0.2,0.8l-5.9,14.7c-0.5,1.1-1.2,2.1-2.2,2.9   l-1.6,1.2c-0.2,0.2-0.4,0.4-0.4,0.7l-0.2,2.5c-0.1,0.8-0.4,1.5-1,2l-3.5,3.5c-0.2,0.2-0.3,0.4-0.4,0.6l-1.7,3.9   c-0.2,0.4-0.5,0.8-0.9,0.9l-1,0.4c-0.6,0.3-1.1,0.8-1.3,1.4l-1.3,4.1c-0.1,0.2-0.2,0.4-0.3,0.6l-1.5,1.9c-0.3,0.3-0.3,0.8,0,1.2   c0.2,0.3,0.2,0.7,0,0.9l-4.1,4.8c-0.2,0.3-0.3,0.6-0.2,1l0,0c0.1,0.5,0.6,0.9,1.2,0.8c0.1,0,0.1,0,0.1,0.1c0,0.4-0.1,0.8-0.5,1.1   l-1.3,0.9c-0.5,0.4-1.2,0.7-1.9,0.7l-2.3,0.3c-0.5,0.1-0.8-0.3-0.8-0.8l0.8-3.9c0.2-0.9,0.5-1.7,0.9-2.5l2.1-3.9   c0-0.1,0-0.1-0.1-0.1l-0.4,0.1c-0.4,0.1-0.9-0.2-1-0.6c-0.2-0.7-0.2-1.4-0.1-2l2.4-9.4c0.1-0.3,0.1-0.5,0.1-0.8l0.5-9.2   c0.1-1.2,0-2.5-0.2-3.7l-1.5-8.7c-0.1-0.7-0.7-1.2-1.4-1.3l-8.3-0.4c-1.4-0.1-2.6-0.7-3.6-1.6l-4.5-4.5c-0.6-0.6-1.3-1.1-2.1-1.4   l-6.4-2.4c-0.4-0.1-0.7-0.4-0.9-0.7l-1.1-1.5c-0.4-0.6-0.5-1.3-0.2-2l1.1-2.1c0.1-0.2,0-0.5-0.2-0.6l-1.8-1.1   c-0.3-0.2-0.5-0.5-0.6-0.8l-0.8-3.2c-0.2-0.7-0.1-1.4,0.1-2l2.2-7.1c0.1-0.4,0.1-0.8-0.1-1.2l-1.9-4.8c-0.1-0.3-0.3-0.6-0.6-0.8   l-3.3-2.7c-0.3-0.2-0.7-0.3-1-0.3l-0.5,0.1c-0.6,0.1-1.1,0.6-1.2,1.3l-0.2,2c0,0.4-0.3,0.8-0.7,1l-0.7,0.4   c-0.3,0.1-0.6,0.2-0.9,0.2l-8.2-0.6c-0.4,0-0.9-0.2-1.2-0.5l-0.2-0.2c-0.5-0.5-1.1-0.9-1.7-1.1l-4.7-1.9c-0.4-0.2-0.9-0.2-1.4-0.1   l-5.6,1.5c-0.8,0.2-1.6,0.2-2.4,0l-6.6-2c-0.2-0.1-0.4,0-0.5,0.1l-2.4,2.4c-0.7,0.7-1.6,1-2.5,0.9l-16.6-1.6   c-0.9-0.1-1.7-0.7-2-1.5l-1.1-2.6c-0.3-0.7-0.8-1.3-1.4-1.6l-14.3-8.5c-0.2-0.1-0.5-0.3-0.7-0.5l-4.2-4.1c-0.1-0.1-0.3-0.1-0.4-0.1   l-0.6,0.2c-0.3,0.1-0.4,0.5-0.1,0.7l5.5,5.8l7.7,7.1c0.1,0.1,0.1,0.3-0.1,0.3l-1.9,0.3c-0.5,0.1-1-0.1-1.3-0.5l-3-3.2   c-0.5-0.5-1.1-0.9-1.8-1.1l-1.7-0.5c-0.6-0.2-1.1-0.7-1.3-1.3l-0.1-0.5c-0.3-1-0.8-1.9-1.5-2.7l-6-6.2c-0.3-0.3-0.7-0.6-1.2-0.7   l-1.9-0.5c-0.7-0.2-1.3-0.5-1.8-1l-3.4-3.3c-0.9-0.8-1.6-1.8-2.1-3l-1.7-3.9c-0.4-0.9-0.6-1.9-0.6-2.9l0.2-12.2   c0-0.2,0.2-0.4,0.4-0.3l1.3,0.3c0.1,0,0.3,0,0.3-0.2c0.2-0.5,0.1-1.2-0.4-1.5l-4.9-3.2c-0.2-0.1-0.3-0.3-0.4-0.4l-0.6-1.1   c-0.1-0.2,0-0.3,0.2-0.4c0.3,0,0.4-0.3,0.3-0.6l-2.7-5.4c-0.2-0.5-0.5-0.9-0.9-1.3l-3.6-4.1c-0.7-0.8-1.7-1.4-2.7-1.8l-3.4-1.1   c-0.3-0.1-0.7-0.1-1,0.1l-1.1,0.7c-0.1,0.1-0.3,0.1-0.5,0.2l-0.5,0.1c-0.2,0-0.4-0.2-0.4-0.4l0.1-0.5c0-0.2-0.2-0.4-0.4-0.3   l-1.2,0.7c-0.3,0.2-0.5,0.4-0.6,0.7l-1.1,2.9c-0.1,0.2-0.2,0.4-0.4,0.6L25,78.5c-0.9,0.6-2,0.9-3.2,0.9l-0.3,0   c-0.3,0-0.4-0.4-0.2-0.5l7.7-5.6c0.1,0,0-0.1,0-0.1l-1.3-0.2c-0.6-0.1-1-0.8-0.8-1.4l1-2.4c0.1-0.2,0.1-0.4,0.1-0.6l-0.2-1.6   c0-0.3,0-0.5,0.2-0.7l1-1.3c0.2-0.2,0.4-0.4,0.6-0.4l2-0.5c0.2-0.1,0.4-0.2,0.6-0.3l0.1-0.1c0.3-0.4,0.4-0.9,0.2-1.3l-0.9-2   c-0.2-0.4,0-0.8,0.4-1l2.4,0c0.3,0,0.6-0.1,0.8-0.3l0.4-0.4c0.3-0.3,0.5-0.6,0.5-1l0-2.1c0-0.6,0.3-1.1,0.8-1.4l4.7-2.5   c0.3-0.1,0.6-0.2,0.9-0.1l4.3,1.1c0.1,0,0.2,0.1,0.3,0.1l3.2,1.7c0.5,0.3,1.1,0.2,1.6-0.1l3.1-2c0.2-0.1,0.5-0.2,0.8-0.2l5-0.1   c0.2,0,0.5-0.1,0.7-0.3c0.2-0.2,0.5-0.3,0.8-0.3l2.1,0.2c0.6,0.1,1,0.5,1.1,1.1c0,0.3,0.3,0.4,0.5,0.3l2.4-1.1   c0.4-0.2,1-0.1,1.3,0.2l0.6,0.5c0.2,0.2,0.6,0.1,0.7-0.2L71,51c0.1-0.4,0.3-0.8,0.7-1l1.4-0.7c0.4-0.2,0.8-0.1,1.1,0.2   c0.3,0.2,0.6,0.3,0.9,0.1l1.8-1c0.4-0.2,0.6-0.7,0.6-1.1l0-0.2L78,47l1.2,1.5c0.1,0.1,0.3,0.1,0.3-0.1l0.3-2.1   c0-0.3-0.2-0.5-0.5-0.4l-0.5,0.2c-0.4,0.2-0.9,0-1.1-0.4l-0.3-0.6C77.3,45,77.1,45,77,45.1c0,0-0.8,1-1.2,1c-0.1,0-0.3-0.3-0.3-0.4   c0-0.3,0.7-1.1,0.7-1.1c0.1-0.1,0-0.3-0.2-0.3l-0.7-0.1c-0.1,0-0.3-0.1-0.3-0.3l-0.3-1.3c-0.1-0.4,0-0.9,0.3-1.2l0.9-1   c0.2-0.3,0.6-0.4,0.9-0.4l3.4-0.3c0.3,0,0.6-0.1,0.9-0.3l0.3-0.2c0.4-0.3,1-0.1,1.2,0.3l0.3,0.6l2.6,0.8c0.3,0.1,0.4,0.4,0.3,0.6   l-0.2,0.4c-0.1,0.2-0.2,0.3-0.4,0.4l-2.5,1.5c-0.2,0.1-0.2,0.4,0,0.6l0,0c0.2,0.2,0.5,0.2,0.7,0l0.1-0.1c0.4-0.3,0.8-0.3,1.2,0   l0.9,0.5c0.3,0.2,0.7,0.1,0.8-0.2l0.1-0.2c0.1-0.2,0.1-0.4,0-0.6L86.3,43c-0.1-0.2-0.1-0.4,0-0.5c0.2-0.5,0.7-0.9,1.3-1l0.8-0.1   c0.6-0.1,1.2,0.2,1.4,0.8l0.5,1.1c0.3,0.6,0.1,1.3-0.4,1.8l-3,2.8c-0.2,0.2-0.2,0.6,0.1,0.8l0.2,0.1c0.4,0.3,0.6,0.8,0.4,1.3   l-1.9,4.4c-0.6,1.4-0.6,3,0.1,4.3l0.4,0.9c0.1,0.2,0.3,0.2,0.4,0.2c0.4-0.2,0.9-0.1,1.2,0.2c0.3,0.3,0.7,0.6,1,0.9   c0.5,0.4,1.2,0.6,1.9,0.5l10.2-2.1c0.7-0.1,1.4,0.1,1.7,0.7l1.2,1.9c0.1,0.1,0.2,0.2,0.3,0.3l2.6,1.6c0.2,0.1,0.5,0.2,0.7,0   l2.4-1.1c0.4-0.2,0.5-0.7,0.1-1l-3.6-3c-0.3-0.3-0.5-0.8-0.3-1.2l0.8-2.2c0.1-0.2,0.1-0.5,0-0.7l-0.4-1c-0.1-0.3-0.4-0.6-0.7-0.7   l-3-1c-0.6-0.2-1-0.6-1.3-1.1l-1.6-3.1c-0.3-0.5,0-1.2,0.6-1.4l3.1-0.9c1.5-0.4,3.1-0.4,4.6,0.2l2.8,1c0.2,0.1,0.5,0,0.7-0.1   l0.6-0.6c0.4-0.4,0.5-1,0.3-1.5l-0.3-0.8c-0.2-0.4,0.1-0.7,0.5-0.7l5.4,0.7c0.6,0.1,1.2,0.3,1.7,0.6l1,0.6c0.5,0.3,1,0.4,1.5,0.3   l5.8-0.5c0.7-0.1,1.4,0.1,2.1,0.5l0.6,0.3c0.7,0.4,1.1,1.1,1.1,1.9l0,2.4c0,0.3-0.1,0.6-0.4,0.8l-2.1,2c-0.3,0.3-0.7,0.6-1.1,0.9   l-2.2,1.4c-0.4,0.3-0.8,0.7-0.9,1.2l-1.2,4.7c0,0.1,0,0.2,0,0.3l0.4,1.7c0,0.2,0.3,0.2,0.3,0l2.4-5.2c0.1-0.1,0.2-0.3,0.3-0.3   l0.9-0.4c0.8-0.4,1.8-0.2,2.5,0.3l2.3,1.8c0.4,0.3,0.9,0.4,1.3,0.2l1.8-0.8c0.3-0.1,0.7,0.1,0.6,0.5l-1.3,4.8   c-0.1,0.2-0.4,0.3-0.5,0.1l-1.1-1.5c-0.2-0.3-0.8-0.3-0.9,0.1l-2.2,4.6c-0.2,0.4-0.2,0.9,0,1.3l0.9,2.3c0.2,0.5,0.1,1-0.1,1.4   l-1.4,2.3c-0.2,0.4-0.3,0.9-0.3,1.4l0.5,4.2c0.1,0.5-0.3,1-0.8,1.1l-0.6,0.1c-0.2,0-0.3,0.2-0.1,0.4l2.6,2.6   c0.6,0.6,0.8,1.4,0.6,2.1l-0.9,4.2c-0.1,0.5-0.3,1-0.6,1.4l-1.1,1.7c-0.3,0.4-0.4,0.9-0.5,1.4l-0.2,2.1c0,0.5,0.1,0.9,0.5,1.2   l3.2,2.9c0.1,0.1,0.1,0.1,0.2,0.2l3.1,4.1c0.1,0.1,0.2,0.3,0.2,0.5l0.3,1.5c0,0.2-0.2,0.4-0.4,0.3l-5.3-2.1l-2.8-2.6   c-0.3-0.3-0.8-0.4-1.2-0.4l-4.3,0.6c-0.4,0.1-0.7,0.2-1.1,0.3l-4.1,1.8c-0.3,0.1-0.4,0.5-0.3,0.8l1.2,2.6c0,0.1,0,0.2-0.1,0.2   l-7.2,1.5c-0.7,0.1-1.2,0.5-1.6,1l-2.4,3.1c-0.4,0.5-0.5,1-0.5,1.6l0.2,5c0,0.4,0.1,0.9,0.3,1.3l1.7,4.8c0.3,0.8,0.8,1.5,1.6,1.9   l5.7,3.7c0.7,0.5,1.7,0.5,2.5,0.1l4.6-2.5c0.8-0.4,1.3-1.2,1.3-2.1l0.1-4.5c0-0.7,0.4-1.3,1.1-1.6l3.8-1.6c0.2-0.1,0.4,0,0.4,0.2   l0.9,8.1c0,0.1,0,0.3,0.1,0.4l0.9,2.4c0.3,0.7,1.1,1,1.7,0.6l5.6-3.1c0.8-0.4,1.7-0.4,2.4,0.1l1.1,0.8c0.3,0.2,0.5,0.5,0.6,0.8   l2.2,5.1c0.5,1.3,1.7,2.1,3,2.3l2.3,0.3c0.8,0.1,1.7-0.2,2.2-0.8l1.6-1.9c0.3-0.4,0.7-0.6,1.2-0.7l2.9-0.4c1.1-0.2,1.9-1,2.1-2   l0.3-2c0.1-0.3,0.2-0.6,0.3-0.9l2.9-5.9c0.2-0.4,0.6-0.8,1-1l0.5-0.3c0.6-0.3,1.3,0,1.5,0.6c0.2,0.4,0.6,0.5,0.9,0.2l0.5-0.5   c0.1-0.1,0.1-0.1,0.2-0.1l2.2-1.1c0.2-0.1,0.4,0,0.5,0.2c0.1,0.2,0.3,0.3,0.5,0.2l7.8-3.8l0.8-0.5c1.1-0.6,2.4-0.9,3.6-0.7l8.1,1   c0.9,0.1,1.9,0,2.8-0.4l4.5-2c0.5-0.2,1-0.2,1.5,0.1l5.9,3.7c0.8,0.5,1.3,1.4,1.4,2.3l0.4,3.3c0,0.1,0.2,0.2,0.3,0.1l3.6-3.5   c0.2-0.2,0.5-0.4,0.8-0.5l4.1-0.9c0.2,0,0.3-0.1,0.5-0.2l3.4-1.8c0.3-0.1,0.6-0.2,0.9-0.2l4.4,0.1c0.5,0,0.9,0.3,1.1,0.8l1.8,6   C229.3,124.7,229.4,125,229.3,125.3z"
       id="path7" /></g></svg>