<?xml version="1.0" encoding="UTF-8" standalone="no"?>
<!-- Generator: Adobe Illustrator 19.2.1, SVG Export Plug-In . SVG Version: 6.00 Build 0)  -->

<svg
   xmlns:dc="http://purl.org/dc/elements/1.1/"
   xmlns:cc="http://creativecommons.org/ns#"
   xmlns:rdf="http://www.w3.org/1999/02/22-rdf-syntax-ns#"
   xmlns:svg="http://www.w3.org/2000/svg"
   xmlns="http://www.w3.org/2000/svg"
   xmlns:sodipodi="http://sodipodi.sourceforge.net/DTD/sodipodi-0.dtd"
   xmlns:inkscape="http://www.inkscape.org/namespaces/inkscape"
   version="1.1"
   id="Layer_1"
   x="0px"
   y="0px"
   viewBox="0 0 256 256"
   style="enable-background:new 0 0 256 256;"
   xml:space="preserve"
   inkscape:version="0.91 r13725"
   sodipodi:docname="search-library.svg"><metadata
     id="metadata39"><rdf:RDF><cc:Work
         rdf:about=""><dc:format>image/svg+xml</dc:format><dc:type
           rdf:resource="http://purl.org/dc/dcmitype/StillImage" /><dc:title></dc:title></cc:Work></rdf:RDF></metadata><defs
     id="defs37" /><sodipodi:namedview
     pagecolor="#ffffff"
     bordercolor="#666666"
     borderopacity="1"
     objecttolerance="10"
     gridtolerance="10"
     guidetolerance="10"
     inkscape:pageopacity="0"
     inkscape:pageshadow="2"
     inkscape:window-width="640"
     inkscape:window-height="480"
     id="namedview35"
     showgrid="false"
     inkscape:zoom="0.921875"
     inkscape:cx="109.01695"
     inkscape:cy="128"
     inkscape:window-x="0"
     inkscape:window-y="0"
     inkscape:window-maximized="0"
     inkscape:current-layer="Layer_1" /><style
     type="text/css"
     id="style3">
	.st0{fill:none;}
	.st1{fill:#BC4A4A;}
	.st2{clip-path:url(#SVGID_2_);}
	.st3{clip-path:url(#SVGID_4_);}
	.st4{fill:#00A204;}
</style><g
     id="g5"><g
       id="g7"><path
         d="M100.6,248.6c0,4.1,1.7,7.4,3.7,7.4h12.2v-22.9h-15.9V248.6z"
         id="path9" /><path
         d="M238.8,52.5h-31.2v41.6h12.6v20.1h-12.6v104.9c0,7.7-6.3,14-14,14h-74.5V256h119.6c5.9,0,10.7-4.8,10.7-10.7V63.2    C249.5,57.3,244.7,52.5,238.8,52.5z"
         id="path11" /></g><g
       id="g13"><path
         d="M126,43.4v-39c0-1.7,1.4-3.1,3.1-3.1h12c1.7,0,3.1,1.4,3.1,3.1v39l-9.1-5.6L126,43.4z"
         id="path15" /><g
         id="g17"><rect
           x="58.1"
           y="69.6"
           class="st0"
           width="71.8"
           height="13.1"
           id="rect19" /><rect
           x="58.1"
           y="52.5"
           class="st0"
           width="71.8"
           height="13.1"
           id="rect21" /><path
           d="M10.3,18.8v188.7c0,4.1,1.7,7.4,3.7,7.4h12.2V11.4H14C12,11.4,10.3,14.7,10.3,18.8z"
           id="path23" /><path
           d="M148.7,11.4c0,0.3,0.1,0.6,0.1,0.9v39.4l-13.7-8.5l-13.7,8.5V12.3c0-0.3,0-0.6,0.1-0.9H28.8v203.5h119.6     c5.9,0,10.7-4.8,10.7-10.7V22.1C159.2,16.3,154.5,11.5,148.7,11.4z M129.9,82.7H58.1V69.6h71.8V82.7z M129.9,65.7H58.1V52.5h71.8     V65.7z"
           id="path25" /></g></g><g
       id="g27"><path
         d="M13.6,18.8v188.7c0,2.2,0.6,3.6,0.9,4.1h8.4V14.7h-8.4C14.2,15.2,13.6,16.6,13.6,18.8z"
         id="path29" /><path
         d="M55.5,222.4c0,4.1,1.7,7.4,3.7,7.4h12.2v-11.6H55.5V222.4z"
         id="path31" /><path
         d="M193.6,26.3h-31.2v34.6H175v37.6h-12.6v105.6c0,7.7-6.3,14-14,14H74v11.6h119.6c5.9,0,10.7-4.8,10.7-10.7V37    C204.3,31.1,199.5,26.3,193.6,26.3z"
         id="path33" /></g></g></svg>